<mxfile host="Electron" agent="Mozilla/5.0 (X11; Linux x86_64) AppleWebKit/537.36 (KHTML, like Gecko) draw.io/27.0.9 Chrome/134.0.6998.205 Electron/35.5.1 Safari/537.36" version="27.0.9" pages="3">
  <diagram name="figure1" id="M39dEWmifof50fwEzXfw">
    <mxGraphModel dx="1181" dy="706" grid="1" gridSize="10" guides="1" tooltips="1" connect="1" arrows="1" fold="1" page="1" pageScale="1" pageWidth="360" pageHeight="240" math="0" shadow="0">
      <root>
        <mxCell id="0" />
        <mxCell id="1" parent="0" />
        <mxCell id="zaIflDJCtXGqBJeR1Flm-1" value="&lt;font style=&quot;font-size: 10px;&quot;&gt;&lt;b&gt;progress&lt;/b&gt;&lt;/font&gt;" style="endArrow=classic;html=1;rounded=0;strokeWidth=2;" edge="1" parent="1">
          <mxGeometry y="30" width="50" height="50" relative="1" as="geometry">
            <mxPoint x="80" y="200" as="sourcePoint" />
            <mxPoint x="80" y="40" as="targetPoint" />
            <mxPoint as="offset" />
          </mxGeometry>
        </mxCell>
        <mxCell id="zaIflDJCtXGqBJeR1Flm-2" value="&lt;font style=&quot;font-size: 10px;&quot;&gt;&lt;b&gt;time&lt;/b&gt;&lt;/font&gt;" style="endArrow=classic;html=1;rounded=0;strokeWidth=2;" edge="1" parent="1">
          <mxGeometry y="-10" width="50" height="50" relative="1" as="geometry">
            <mxPoint x="80" y="200" as="sourcePoint" />
            <mxPoint x="320" y="200" as="targetPoint" />
            <mxPoint as="offset" />
          </mxGeometry>
        </mxCell>
        <mxCell id="zaIflDJCtXGqBJeR1Flm-3" value="" style="endArrow=none;dashed=1;html=1;rounded=0;" edge="1" parent="1">
          <mxGeometry width="50" height="50" relative="1" as="geometry">
            <mxPoint x="200" y="200" as="sourcePoint" />
            <mxPoint x="200" y="40" as="targetPoint" />
          </mxGeometry>
        </mxCell>
        <mxCell id="zaIflDJCtXGqBJeR1Flm-10" value="&lt;font style=&quot;font-size: 10px;&quot;&gt;BCWS&lt;/font&gt;" style="endArrow=none;html=1;rounded=0;fillColor=#dae8fc;strokeColor=#6c8ebf;" edge="1" parent="1">
          <mxGeometry x="-0.0769" y="19" width="50" height="50" relative="1" as="geometry">
            <mxPoint x="80" y="200" as="sourcePoint" />
            <mxPoint x="320" y="40" as="targetPoint" />
            <mxPoint as="offset" />
          </mxGeometry>
        </mxCell>
        <mxCell id="zaIflDJCtXGqBJeR1Flm-11" value="&lt;font style=&quot;font-size: 10px;&quot;&gt;BCWP&lt;/font&gt;" style="endArrow=none;html=1;rounded=0;fillColor=#d5e8d4;strokeColor=#82b366;" edge="1" parent="1">
          <mxGeometry x="0.6" y="-13" width="50" height="50" relative="1" as="geometry">
            <mxPoint x="80" y="200" as="sourcePoint" />
            <mxPoint x="200" y="160" as="targetPoint" />
            <mxPoint as="offset" />
          </mxGeometry>
        </mxCell>
        <mxCell id="zaIflDJCtXGqBJeR1Flm-13" value="&lt;font style=&quot;font-size: 10px;&quot;&gt;SV&lt;/font&gt;" style="endArrow=classic;startArrow=classic;html=1;rounded=0;edgeStyle=orthogonalEdgeStyle;fillColor=#ffe6cc;strokeColor=#d79b00;" edge="1" parent="1">
          <mxGeometry width="50" height="50" relative="1" as="geometry">
            <mxPoint x="200" y="160" as="sourcePoint" />
            <mxPoint x="200" y="120" as="targetPoint" />
            <Array as="points">
              <mxPoint x="240" y="160" />
              <mxPoint x="240" y="120" />
            </Array>
          </mxGeometry>
        </mxCell>
      </root>
    </mxGraphModel>
  </diagram>
  <diagram name="figure2" id="qHfzO9tXDeBtUi7O6HQA">
    <mxGraphModel dx="1181" dy="706" grid="1" gridSize="10" guides="1" tooltips="1" connect="1" arrows="1" fold="1" page="1" pageScale="1" pageWidth="560" pageHeight="280" math="0" shadow="0">
      <root>
        <mxCell id="eYlBgJJhaktJfGFZpkx7-0" />
        <mxCell id="eYlBgJJhaktJfGFZpkx7-1" parent="eYlBgJJhaktJfGFZpkx7-0" />
        <mxCell id="45jugJiqO4rcZtn-yt7p-0" value="" style="rounded=0;whiteSpace=wrap;html=1;dashed=1;" vertex="1" parent="eYlBgJJhaktJfGFZpkx7-1">
          <mxGeometry x="79.97" y="60" width="120" height="160" as="geometry" />
        </mxCell>
        <mxCell id="45jugJiqO4rcZtn-yt7p-3" value="Requirements&lt;div&gt;specification&lt;/div&gt;" style="rounded=0;whiteSpace=wrap;html=1;fillColor=#d5e8d4;strokeColor=#82b366;fontColor=#333333;" vertex="1" parent="eYlBgJJhaktJfGFZpkx7-1">
          <mxGeometry x="99.97" y="80" width="80" height="40" as="geometry" />
        </mxCell>
        <mxCell id="45jugJiqO4rcZtn-yt7p-5" style="edgeStyle=orthogonalEdgeStyle;rounded=0;orthogonalLoop=1;jettySize=auto;html=1;exitX=0.5;exitY=0;exitDx=0;exitDy=0;entryX=0.5;entryY=1;entryDx=0;entryDy=0;fillColor=#dae8fc;strokeColor=#6c8ebf;" edge="1" parent="eYlBgJJhaktJfGFZpkx7-1" source="45jugJiqO4rcZtn-yt7p-4" target="45jugJiqO4rcZtn-yt7p-3">
          <mxGeometry relative="1" as="geometry" />
        </mxCell>
        <mxCell id="45jugJiqO4rcZtn-yt7p-4" value="Requirement&lt;div&gt;review&lt;/div&gt;" style="rounded=0;whiteSpace=wrap;html=1;fillColor=#dae8fc;strokeColor=#6c8ebf;fontColor=#333333;" vertex="1" parent="eYlBgJJhaktJfGFZpkx7-1">
          <mxGeometry x="99.97" y="160" width="80" height="40" as="geometry" />
        </mxCell>
        <mxCell id="45jugJiqO4rcZtn-yt7p-15" style="edgeStyle=orthogonalEdgeStyle;rounded=0;orthogonalLoop=1;jettySize=auto;html=1;exitX=0.25;exitY=1;exitDx=0;exitDy=0;entryX=0.75;entryY=1;entryDx=0;entryDy=0;fillColor=#f5f5f5;strokeColor=#666666;" edge="1" parent="eYlBgJJhaktJfGFZpkx7-1" source="45jugJiqO4rcZtn-yt7p-6" target="45jugJiqO4rcZtn-yt7p-0">
          <mxGeometry relative="1" as="geometry">
            <Array as="points">
              <mxPoint x="260" y="240" />
              <mxPoint x="170" y="240" />
            </Array>
          </mxGeometry>
        </mxCell>
        <mxCell id="0ygfKlYCbILb2bod1dB1-0" value="&lt;font style=&quot;font-size: 10px;&quot;&gt;verification&lt;/font&gt;" style="edgeLabel;html=1;align=center;verticalAlign=middle;resizable=0;points=[];" vertex="1" connectable="0" parent="45jugJiqO4rcZtn-yt7p-15">
          <mxGeometry x="0.0092" y="1" relative="1" as="geometry">
            <mxPoint as="offset" />
          </mxGeometry>
        </mxCell>
        <mxCell id="45jugJiqO4rcZtn-yt7p-6" value="" style="rounded=0;whiteSpace=wrap;html=1;dashed=1;" vertex="1" parent="eYlBgJJhaktJfGFZpkx7-1">
          <mxGeometry x="220" y="60" width="160" height="160" as="geometry" />
        </mxCell>
        <mxCell id="45jugJiqO4rcZtn-yt7p-7" value="Design&lt;div&gt;specification&lt;/div&gt;" style="rounded=0;whiteSpace=wrap;html=1;fillColor=#d5e8d4;strokeColor=#82b366;fontColor=#333333;" vertex="1" parent="eYlBgJJhaktJfGFZpkx7-1">
          <mxGeometry x="240.00000000000003" y="80" width="120" height="40" as="geometry" />
        </mxCell>
        <mxCell id="45jugJiqO4rcZtn-yt7p-8" style="edgeStyle=orthogonalEdgeStyle;rounded=0;orthogonalLoop=1;jettySize=auto;html=1;exitX=0.5;exitY=0;exitDx=0;exitDy=0;entryX=0.5;entryY=1;entryDx=0;entryDy=0;fillColor=#dae8fc;strokeColor=#6c8ebf;" edge="1" parent="eYlBgJJhaktJfGFZpkx7-1" source="45jugJiqO4rcZtn-yt7p-9" target="45jugJiqO4rcZtn-yt7p-7">
          <mxGeometry relative="1" as="geometry" />
        </mxCell>
        <mxCell id="45jugJiqO4rcZtn-yt7p-9" value="Design&lt;div&gt;review&lt;/div&gt;" style="rounded=0;whiteSpace=wrap;html=1;fillColor=#dae8fc;strokeColor=#6c8ebf;fontColor=#333333;" vertex="1" parent="eYlBgJJhaktJfGFZpkx7-1">
          <mxGeometry x="240.00000000000003" y="160" width="120" height="40" as="geometry" />
        </mxCell>
        <mxCell id="DwQNHVNJciZqLCH1Cs1A-0" value="&lt;font style=&quot;font-size: 10px;&quot;&gt;verification&lt;/font&gt;" style="edgeStyle=orthogonalEdgeStyle;rounded=0;orthogonalLoop=1;jettySize=auto;html=1;exitX=0.25;exitY=1;exitDx=0;exitDy=0;entryX=0.75;entryY=1;entryDx=0;entryDy=0;fillColor=#f5f5f5;strokeColor=#666666;" edge="1" parent="eYlBgJJhaktJfGFZpkx7-1" source="45jugJiqO4rcZtn-yt7p-10" target="45jugJiqO4rcZtn-yt7p-6">
          <mxGeometry relative="1" as="geometry">
            <Array as="points">
              <mxPoint x="430" y="240" />
              <mxPoint x="340" y="240" />
            </Array>
          </mxGeometry>
        </mxCell>
        <mxCell id="45jugJiqO4rcZtn-yt7p-10" value="" style="rounded=0;whiteSpace=wrap;html=1;dashed=1;" vertex="1" parent="eYlBgJJhaktJfGFZpkx7-1">
          <mxGeometry x="400" y="60" width="120" height="160" as="geometry" />
        </mxCell>
        <mxCell id="45jugJiqO4rcZtn-yt7p-11" value="Implentat&lt;span style=&quot;background-color: transparent;&quot;&gt;ion&lt;/span&gt;" style="rounded=0;whiteSpace=wrap;html=1;fillColor=#d5e8d4;strokeColor=#82b366;fontColor=#333333;" vertex="1" parent="eYlBgJJhaktJfGFZpkx7-1">
          <mxGeometry x="420" y="80" width="80" height="40" as="geometry" />
        </mxCell>
        <mxCell id="45jugJiqO4rcZtn-yt7p-12" style="edgeStyle=orthogonalEdgeStyle;rounded=0;orthogonalLoop=1;jettySize=auto;html=1;exitX=0.5;exitY=0;exitDx=0;exitDy=0;entryX=0.5;entryY=1;entryDx=0;entryDy=0;fillColor=#dae8fc;strokeColor=#6c8ebf;" edge="1" parent="eYlBgJJhaktJfGFZpkx7-1" source="45jugJiqO4rcZtn-yt7p-13" target="45jugJiqO4rcZtn-yt7p-11">
          <mxGeometry relative="1" as="geometry" />
        </mxCell>
        <mxCell id="45jugJiqO4rcZtn-yt7p-13" value="Testing" style="rounded=0;whiteSpace=wrap;html=1;fillColor=#dae8fc;strokeColor=#6c8ebf;fontColor=#333333;" vertex="1" parent="eYlBgJJhaktJfGFZpkx7-1">
          <mxGeometry x="420" y="160" width="80" height="40" as="geometry" />
        </mxCell>
        <mxCell id="45jugJiqO4rcZtn-yt7p-14" value="&lt;font style=&quot;font-size: 10px;&quot;&gt;validation&lt;/font&gt;" style="edgeStyle=orthogonalEdgeStyle;rounded=0;orthogonalLoop=1;jettySize=auto;html=1;exitX=0;exitY=0.75;exitDx=0;exitDy=0;entryX=0;entryY=0.5;entryDx=0;entryDy=0;fillColor=#f5f5f5;strokeColor=#666666;" edge="1" parent="eYlBgJJhaktJfGFZpkx7-1" source="45jugJiqO4rcZtn-yt7p-0" target="45jugJiqO4rcZtn-yt7p-0">
          <mxGeometry y="10" relative="1" as="geometry">
            <Array as="points">
              <mxPoint x="60" y="180" />
              <mxPoint x="60" y="140" />
            </Array>
            <mxPoint as="offset" />
          </mxGeometry>
        </mxCell>
        <mxCell id="GdE08hnoAfRmLS7F9kOc-0" value="&lt;font style=&quot;font-size: 10px;&quot;&gt;refinement&lt;/font&gt;" style="edgeStyle=orthogonalEdgeStyle;rounded=0;orthogonalLoop=1;jettySize=auto;html=1;exitX=0.25;exitY=0;exitDx=0;exitDy=0;entryX=0.75;entryY=0;entryDx=0;entryDy=0;fillColor=#f5f5f5;strokeColor=#666666;" edge="1" parent="eYlBgJJhaktJfGFZpkx7-1" source="45jugJiqO4rcZtn-yt7p-6" target="45jugJiqO4rcZtn-yt7p-6">
          <mxGeometry relative="1" as="geometry">
            <Array as="points">
              <mxPoint x="260" y="40" />
              <mxPoint x="340" y="40" />
            </Array>
          </mxGeometry>
        </mxCell>
        <mxCell id="0ygfKlYCbILb2bod1dB1-2" style="edgeStyle=orthogonalEdgeStyle;rounded=0;orthogonalLoop=1;jettySize=auto;html=1;exitX=1;exitY=0.5;exitDx=0;exitDy=0;entryX=0;entryY=0.5;entryDx=0;entryDy=0;fillColor=#d5e8d4;strokeColor=#82b366;" edge="1" parent="eYlBgJJhaktJfGFZpkx7-1" source="45jugJiqO4rcZtn-yt7p-7" target="45jugJiqO4rcZtn-yt7p-11">
          <mxGeometry relative="1" as="geometry" />
        </mxCell>
        <mxCell id="0ygfKlYCbILb2bod1dB1-1" style="edgeStyle=orthogonalEdgeStyle;rounded=0;orthogonalLoop=1;jettySize=auto;html=1;exitX=1;exitY=0.5;exitDx=0;exitDy=0;entryX=0;entryY=0.5;entryDx=0;entryDy=0;fillColor=#d5e8d4;strokeColor=#82b366;" edge="1" parent="eYlBgJJhaktJfGFZpkx7-1" source="45jugJiqO4rcZtn-yt7p-3" target="45jugJiqO4rcZtn-yt7p-7">
          <mxGeometry relative="1" as="geometry" />
        </mxCell>
      </root>
    </mxGraphModel>
  </diagram>
  <diagram name="figure3" id="4rIgiD6-F-FzR_X9Po0_">
    <mxGraphModel dx="984" dy="589" grid="1" gridSize="10" guides="1" tooltips="1" connect="1" arrows="1" fold="1" page="1" pageScale="1" pageWidth="520" pageHeight="440" math="0" shadow="0">
      <root>
        <mxCell id="YGlclTY7_9VkkwZFqgkO-0" />
        <mxCell id="YGlclTY7_9VkkwZFqgkO-1" parent="YGlclTY7_9VkkwZFqgkO-0" />
        <mxCell id="UcQSiEj7GP6GRE5hKq0W-0" value="" style="endArrow=none;html=1;rounded=0;dashed=1;" edge="1" parent="YGlclTY7_9VkkwZFqgkO-1">
          <mxGeometry width="50" height="50" relative="1" as="geometry">
            <mxPoint x="100" y="360" as="sourcePoint" />
            <mxPoint x="100" y="40" as="targetPoint" />
          </mxGeometry>
        </mxCell>
        <mxCell id="UcQSiEj7GP6GRE5hKq0W-1" value="On schedule" style="text;html=1;align=right;verticalAlign=middle;whiteSpace=wrap;rounded=0;fontSize=10;fontStyle=1" vertex="1" parent="YGlclTY7_9VkkwZFqgkO-1">
          <mxGeometry x="20" y="190" width="70" height="20" as="geometry" />
        </mxCell>
        <mxCell id="UcQSiEj7GP6GRE5hKq0W-7" value="" style="endArrow=none;html=1;rounded=0;strokeWidth=1;dashed=1;" edge="1" parent="YGlclTY7_9VkkwZFqgkO-1">
          <mxGeometry width="50" height="50" relative="1" as="geometry">
            <mxPoint x="460" y="79.76" as="sourcePoint" />
            <mxPoint x="100" y="79.76" as="targetPoint" />
          </mxGeometry>
        </mxCell>
        <mxCell id="UcQSiEj7GP6GRE5hKq0W-9" value="&lt;font style=&quot;font-size: 10px;&quot;&gt;2&lt;/font&gt;&lt;div&gt;&lt;font style=&quot;font-size: 10px;&quot;&gt;Require&lt;/font&gt;&lt;span style=&quot;font-size: 10px; background-color: light-dark(#ffffff, var(--ge-dark-color, #121212)); color: light-dark(rgb(0, 0, 0), rgb(255, 255, 255));&quot;&gt;ment&lt;/span&gt;&lt;/div&gt;" style="endArrow=none;html=1;rounded=0;dashed=1;" edge="1" parent="YGlclTY7_9VkkwZFqgkO-1">
          <mxGeometry x="-1" y="-30" width="50" height="50" relative="1" as="geometry">
            <mxPoint x="180" y="360" as="sourcePoint" />
            <mxPoint x="180" y="40" as="targetPoint" />
            <mxPoint x="-30" y="30" as="offset" />
          </mxGeometry>
        </mxCell>
        <mxCell id="UcQSiEj7GP6GRE5hKq0W-10" value="&lt;font style=&quot;font-size: 10px;&quot;&gt;3&lt;/font&gt;&lt;div&gt;&lt;font style=&quot;font-size: 10px;&quot;&gt;Analysis&lt;/font&gt;&lt;/div&gt;" style="endArrow=none;html=1;rounded=0;dashed=1;" edge="1" parent="YGlclTY7_9VkkwZFqgkO-1">
          <mxGeometry x="-1" y="-10" width="50" height="50" relative="1" as="geometry">
            <mxPoint x="220" y="360" as="sourcePoint" />
            <mxPoint x="220" y="40" as="targetPoint" />
            <mxPoint x="-10" y="10" as="offset" />
          </mxGeometry>
        </mxCell>
        <mxCell id="UcQSiEj7GP6GRE5hKq0W-11" value="&lt;font style=&quot;font-size: 10px;&quot;&gt;4&lt;/font&gt;&lt;div&gt;&lt;font style=&quot;font-size: 10px;&quot;&gt;Design&lt;/font&gt;&lt;/div&gt;" style="endArrow=none;html=1;rounded=0;dashed=1;" edge="1" parent="YGlclTY7_9VkkwZFqgkO-1">
          <mxGeometry x="-1" y="-30" width="50" height="50" relative="1" as="geometry">
            <mxPoint x="260" y="360" as="sourcePoint" />
            <mxPoint x="260" y="40" as="targetPoint" />
            <mxPoint x="-30" y="30" as="offset" />
          </mxGeometry>
        </mxCell>
        <mxCell id="UcQSiEj7GP6GRE5hKq0W-12" value="&lt;font style=&quot;font-size: 10px;&quot;&gt;5&lt;/font&gt;&lt;div&gt;&lt;font style=&quot;font-size: 10px;&quot;&gt;Coding&lt;/font&gt;&lt;/div&gt;" style="endArrow=none;html=1;rounded=0;dashed=1;" edge="1" parent="YGlclTY7_9VkkwZFqgkO-1">
          <mxGeometry x="-1" y="-10" width="50" height="50" relative="1" as="geometry">
            <mxPoint x="300" y="360" as="sourcePoint" />
            <mxPoint x="300" y="40" as="targetPoint" />
            <mxPoint x="-10" y="10" as="offset" />
          </mxGeometry>
        </mxCell>
        <mxCell id="UcQSiEj7GP6GRE5hKq0W-13" value="&lt;font style=&quot;font-size: 10px;&quot;&gt;6&lt;/font&gt;&lt;div&gt;&lt;font style=&quot;font-size: 10px;&quot;&gt;Unit testing&lt;/font&gt;&lt;/div&gt;" style="endArrow=none;html=1;rounded=0;dashed=1;" edge="1" parent="YGlclTY7_9VkkwZFqgkO-1">
          <mxGeometry x="-1" y="-30" width="50" height="50" relative="1" as="geometry">
            <mxPoint x="340" y="360" as="sourcePoint" />
            <mxPoint x="340" y="40" as="targetPoint" />
            <mxPoint x="-30" y="30" as="offset" />
          </mxGeometry>
        </mxCell>
        <mxCell id="UcQSiEj7GP6GRE5hKq0W-17" value="&lt;font style=&quot;font-size: 10px;&quot;&gt;8&lt;/font&gt;&lt;div&gt;&lt;font style=&quot;font-size: 10px;&quot;&gt;Documentation&lt;/font&gt;&lt;/div&gt;" style="endArrow=none;html=1;rounded=0;dashed=1;" edge="1" parent="YGlclTY7_9VkkwZFqgkO-1">
          <mxGeometry x="-1" y="-30" width="50" height="50" relative="1" as="geometry">
            <mxPoint x="420" y="360" as="sourcePoint" />
            <mxPoint x="420" y="40" as="targetPoint" />
            <mxPoint x="-30" y="30" as="offset" />
          </mxGeometry>
        </mxCell>
        <mxCell id="UcQSiEj7GP6GRE5hKq0W-18" value="&lt;font style=&quot;font-size: 10px;&quot;&gt;9&lt;/font&gt;&lt;div&gt;&lt;font style=&quot;font-size: 10px;&quot;&gt;Installation&lt;/font&gt;&lt;/div&gt;" style="endArrow=none;html=1;rounded=0;dashed=1;" edge="1" parent="YGlclTY7_9VkkwZFqgkO-1">
          <mxGeometry x="-1" y="-10" width="50" height="50" relative="1" as="geometry">
            <mxPoint x="460" y="360" as="sourcePoint" />
            <mxPoint x="460" y="40" as="targetPoint" />
            <mxPoint x="-10" y="10" as="offset" />
          </mxGeometry>
        </mxCell>
        <mxCell id="UcQSiEj7GP6GRE5hKq0W-19" value="&lt;font style=&quot;font-size: 10px;&quot;&gt;1 w&lt;/font&gt;" style="text;html=1;align=right;verticalAlign=middle;whiteSpace=wrap;rounded=0;" vertex="1" parent="YGlclTY7_9VkkwZFqgkO-1">
          <mxGeometry x="60" y="150" width="30" height="20" as="geometry" />
        </mxCell>
        <mxCell id="UcQSiEj7GP6GRE5hKq0W-20" value="2 w" style="text;html=1;align=right;verticalAlign=middle;whiteSpace=wrap;rounded=0;fontSize=10;" vertex="1" parent="YGlclTY7_9VkkwZFqgkO-1">
          <mxGeometry x="60" y="110" width="30" height="20" as="geometry" />
        </mxCell>
        <mxCell id="UcQSiEj7GP6GRE5hKq0W-21" value="&lt;font style=&quot;font-size: 10px;&quot;&gt;3 w&lt;/font&gt;" style="text;html=1;align=right;verticalAlign=middle;whiteSpace=wrap;rounded=0;" vertex="1" parent="YGlclTY7_9VkkwZFqgkO-1">
          <mxGeometry x="60" y="70" width="30" height="20" as="geometry" />
        </mxCell>
        <mxCell id="UcQSiEj7GP6GRE5hKq0W-22" value="Early" style="text;html=1;align=right;verticalAlign=middle;whiteSpace=wrap;rounded=0;fontSize=10;fontStyle=1" vertex="1" parent="YGlclTY7_9VkkwZFqgkO-1">
          <mxGeometry x="20" y="30" width="70" height="20" as="geometry" />
        </mxCell>
        <mxCell id="UcQSiEj7GP6GRE5hKq0W-23" value="&lt;font style=&quot;font-size: 10px;&quot;&gt;1 w&lt;/font&gt;" style="text;html=1;align=right;verticalAlign=middle;whiteSpace=wrap;rounded=0;" vertex="1" parent="YGlclTY7_9VkkwZFqgkO-1">
          <mxGeometry x="60" y="230" width="30" height="20" as="geometry" />
        </mxCell>
        <mxCell id="UcQSiEj7GP6GRE5hKq0W-24" value="2 w" style="text;html=1;align=right;verticalAlign=middle;whiteSpace=wrap;rounded=0;fontSize=10;" vertex="1" parent="YGlclTY7_9VkkwZFqgkO-1">
          <mxGeometry x="60" y="270" width="30" height="20" as="geometry" />
        </mxCell>
        <mxCell id="UcQSiEj7GP6GRE5hKq0W-25" value="&lt;font style=&quot;font-size: 10px;&quot;&gt;3 w&lt;/font&gt;" style="text;html=1;align=right;verticalAlign=middle;whiteSpace=wrap;rounded=0;" vertex="1" parent="YGlclTY7_9VkkwZFqgkO-1">
          <mxGeometry x="60" y="310" width="30" height="20" as="geometry" />
        </mxCell>
        <mxCell id="UcQSiEj7GP6GRE5hKq0W-26" value="Late" style="text;html=1;align=right;verticalAlign=middle;whiteSpace=wrap;rounded=0;fontSize=10;fontStyle=1" vertex="1" parent="YGlclTY7_9VkkwZFqgkO-1">
          <mxGeometry x="20" y="350" width="70" height="20" as="geometry" />
        </mxCell>
        <mxCell id="UcQSiEj7GP6GRE5hKq0W-28" value="" style="endArrow=none;html=1;rounded=0;strokeWidth=1;dashed=1;" edge="1" parent="YGlclTY7_9VkkwZFqgkO-1" source="XnIrbS_3lYPw9cI2sJvL-11">
          <mxGeometry width="50" height="50" relative="1" as="geometry">
            <mxPoint x="460" y="120" as="sourcePoint" />
            <mxPoint x="100" y="120" as="targetPoint" />
          </mxGeometry>
        </mxCell>
        <mxCell id="UcQSiEj7GP6GRE5hKq0W-29" value="" style="endArrow=none;html=1;rounded=0;strokeWidth=1;dashed=1;" edge="1" parent="YGlclTY7_9VkkwZFqgkO-1" source="XnIrbS_3lYPw9cI2sJvL-6">
          <mxGeometry width="50" height="50" relative="1" as="geometry">
            <mxPoint x="460" y="159.76" as="sourcePoint" />
            <mxPoint x="100" y="159.76" as="targetPoint" />
          </mxGeometry>
        </mxCell>
        <mxCell id="UcQSiEj7GP6GRE5hKq0W-30" value="" style="endArrow=none;html=1;rounded=0;strokeWidth=2;" edge="1" parent="YGlclTY7_9VkkwZFqgkO-1" source="UcQSiEj7GP6GRE5hKq0W-34">
          <mxGeometry width="50" height="50" relative="1" as="geometry">
            <mxPoint x="460" y="199.76" as="sourcePoint" />
            <mxPoint x="100" y="199.76" as="targetPoint" />
          </mxGeometry>
        </mxCell>
        <mxCell id="UcQSiEj7GP6GRE5hKq0W-31" value="" style="endArrow=none;html=1;rounded=0;strokeWidth=1;dashed=1;" edge="1" parent="YGlclTY7_9VkkwZFqgkO-1">
          <mxGeometry width="50" height="50" relative="1" as="geometry">
            <mxPoint x="460" y="240" as="sourcePoint" />
            <mxPoint x="100" y="240" as="targetPoint" />
          </mxGeometry>
        </mxCell>
        <mxCell id="UcQSiEj7GP6GRE5hKq0W-32" value="" style="endArrow=none;html=1;rounded=0;strokeWidth=1;dashed=1;" edge="1" parent="YGlclTY7_9VkkwZFqgkO-1">
          <mxGeometry width="50" height="50" relative="1" as="geometry">
            <mxPoint x="460" y="279.76" as="sourcePoint" />
            <mxPoint x="100" y="279.76" as="targetPoint" />
          </mxGeometry>
        </mxCell>
        <mxCell id="UcQSiEj7GP6GRE5hKq0W-33" value="" style="endArrow=none;html=1;rounded=0;strokeWidth=1;dashed=1;" edge="1" parent="YGlclTY7_9VkkwZFqgkO-1">
          <mxGeometry width="50" height="50" relative="1" as="geometry">
            <mxPoint x="460" y="319.76" as="sourcePoint" />
            <mxPoint x="100" y="319.76" as="targetPoint" />
          </mxGeometry>
        </mxCell>
        <mxCell id="XnIrbS_3lYPw9cI2sJvL-3" value="" style="endArrow=none;html=1;rounded=0;strokeWidth=2;" edge="1" parent="YGlclTY7_9VkkwZFqgkO-1" target="UcQSiEj7GP6GRE5hKq0W-34">
          <mxGeometry width="50" height="50" relative="1" as="geometry">
            <mxPoint x="460" y="199.76" as="sourcePoint" />
            <mxPoint x="100" y="199.76" as="targetPoint" />
          </mxGeometry>
        </mxCell>
        <mxCell id="XnIrbS_3lYPw9cI2sJvL-8" value="" style="endArrow=none;html=1;rounded=0;strokeWidth=1;dashed=1;" edge="1" parent="YGlclTY7_9VkkwZFqgkO-1" target="XnIrbS_3lYPw9cI2sJvL-6">
          <mxGeometry width="50" height="50" relative="1" as="geometry">
            <mxPoint x="460" y="159.76" as="sourcePoint" />
            <mxPoint x="100" y="159.76" as="targetPoint" />
          </mxGeometry>
        </mxCell>
        <mxCell id="XnIrbS_3lYPw9cI2sJvL-12" value="" style="endArrow=none;html=1;rounded=0;strokeWidth=1;dashed=1;" edge="1" parent="YGlclTY7_9VkkwZFqgkO-1" source="XnIrbS_3lYPw9cI2sJvL-13" target="XnIrbS_3lYPw9cI2sJvL-11">
          <mxGeometry width="50" height="50" relative="1" as="geometry">
            <mxPoint x="460" y="120" as="sourcePoint" />
            <mxPoint x="100" y="120" as="targetPoint" />
          </mxGeometry>
        </mxCell>
        <mxCell id="XnIrbS_3lYPw9cI2sJvL-14" value="" style="endArrow=none;html=1;rounded=0;strokeWidth=1;dashed=1;" edge="1" parent="YGlclTY7_9VkkwZFqgkO-1" target="XnIrbS_3lYPw9cI2sJvL-13">
          <mxGeometry width="50" height="50" relative="1" as="geometry">
            <mxPoint x="460" y="120" as="sourcePoint" />
            <mxPoint x="350" y="120" as="targetPoint" />
          </mxGeometry>
        </mxCell>
        <mxCell id="UcQSiEj7GP6GRE5hKq0W-8" value="&lt;font style=&quot;font-size: 10px;&quot;&gt;1&lt;/font&gt;&lt;div&gt;&lt;span style=&quot;font-size: 10px;&quot;&gt;Planning&lt;/span&gt;&lt;/div&gt;" style="endArrow=none;html=1;rounded=0;dashed=1;" edge="1" parent="YGlclTY7_9VkkwZFqgkO-1">
          <mxGeometry x="-1" y="-10" width="50" height="50" relative="1" as="geometry">
            <mxPoint x="140" y="360" as="sourcePoint" />
            <mxPoint x="140" y="40" as="targetPoint" />
            <mxPoint x="-10" y="10" as="offset" />
          </mxGeometry>
        </mxCell>
        <mxCell id="UcQSiEj7GP6GRE5hKq0W-16" value="&lt;font style=&quot;font-size: 10px;&quot;&gt;7&lt;/font&gt;&lt;div&gt;&lt;font style=&quot;font-size: 10px;&quot;&gt;Integration test&lt;/font&gt;&lt;/div&gt;" style="endArrow=none;html=1;rounded=0;dashed=1;" edge="1" parent="YGlclTY7_9VkkwZFqgkO-1">
          <mxGeometry x="-1" y="-10" width="50" height="50" relative="1" as="geometry">
            <mxPoint x="380" y="360" as="sourcePoint" />
            <mxPoint x="380" y="40" as="targetPoint" />
            <mxPoint x="-10" y="10" as="offset" />
          </mxGeometry>
        </mxCell>
        <mxCell id="XnIrbS_3lYPw9cI2sJvL-0" value="" style="ellipse;whiteSpace=wrap;html=1;aspect=fixed;fillColor=#d5e8d4;strokeColor=#82b366;" vertex="1" parent="YGlclTY7_9VkkwZFqgkO-1">
          <mxGeometry x="170" y="150" width="20" height="20" as="geometry" />
        </mxCell>
        <mxCell id="UcQSiEj7GP6GRE5hKq0W-34" value="" style="ellipse;whiteSpace=wrap;html=1;aspect=fixed;fillColor=#dae8fc;strokeColor=#6c8ebf;" vertex="1" parent="YGlclTY7_9VkkwZFqgkO-1">
          <mxGeometry x="130" y="190" width="20" height="20" as="geometry" />
        </mxCell>
        <mxCell id="XnIrbS_3lYPw9cI2sJvL-6" value="" style="ellipse;whiteSpace=wrap;html=1;aspect=fixed;fillColor=#d5e8d4;strokeColor=#82b366;" vertex="1" parent="YGlclTY7_9VkkwZFqgkO-1">
          <mxGeometry x="210" y="150" width="20" height="20" as="geometry" />
        </mxCell>
        <mxCell id="XnIrbS_3lYPw9cI2sJvL-9" value="" style="ellipse;whiteSpace=wrap;html=1;aspect=fixed;fillColor=#d5e8d4;strokeColor=#82b366;" vertex="1" parent="YGlclTY7_9VkkwZFqgkO-1">
          <mxGeometry x="250" y="150" width="20" height="20" as="geometry" />
        </mxCell>
        <mxCell id="XnIrbS_3lYPw9cI2sJvL-10" value="" style="ellipse;whiteSpace=wrap;html=1;aspect=fixed;fillColor=#d5e8d4;strokeColor=#82b366;" vertex="1" parent="YGlclTY7_9VkkwZFqgkO-1">
          <mxGeometry x="290" y="110" width="20" height="20" as="geometry" />
        </mxCell>
        <mxCell id="XnIrbS_3lYPw9cI2sJvL-11" value="" style="ellipse;whiteSpace=wrap;html=1;aspect=fixed;fillColor=#d5e8d4;strokeColor=#82b366;" vertex="1" parent="YGlclTY7_9VkkwZFqgkO-1">
          <mxGeometry x="330" y="110" width="20" height="20" as="geometry" />
        </mxCell>
        <mxCell id="XnIrbS_3lYPw9cI2sJvL-13" value="" style="ellipse;whiteSpace=wrap;html=1;aspect=fixed;fillColor=#d5e8d4;strokeColor=#82b366;" vertex="1" parent="YGlclTY7_9VkkwZFqgkO-1">
          <mxGeometry x="370" y="110" width="20" height="20" as="geometry" />
        </mxCell>
        <mxCell id="XnIrbS_3lYPw9cI2sJvL-15" value="" style="ellipse;whiteSpace=wrap;html=1;aspect=fixed;fillColor=#d5e8d4;strokeColor=#82b366;" vertex="1" parent="YGlclTY7_9VkkwZFqgkO-1">
          <mxGeometry x="410" y="70" width="20" height="20" as="geometry" />
        </mxCell>
        <mxCell id="XnIrbS_3lYPw9cI2sJvL-16" value="" style="ellipse;whiteSpace=wrap;html=1;aspect=fixed;fillColor=#d5e8d4;strokeColor=#82b366;" vertex="1" parent="YGlclTY7_9VkkwZFqgkO-1">
          <mxGeometry x="450" y="70" width="20" height="20" as="geometry" />
        </mxCell>
      </root>
    </mxGraphModel>
  </diagram>
</mxfile>
